# Blender v3.0.1 OBJ File: 'rubbish.blend'
# www.blender.org
mtllib rubbish.mtl
o rubbish_Grid
v -3.751314 -0.133602 3.762658
v -3.001050 -0.133602 3.762658
v -2.250788 -0.133602 3.762658
v -1.500525 -0.133602 3.762658
v -0.750263 -0.133602 3.762658
v -0.000000 -0.133602 3.762658
v 0.750262 -0.133602 3.762658
v 1.500525 -0.133602 3.762658
v 2.250787 -0.133602 3.762658
v 3.001050 -0.133602 3.762658
v 3.751312 -0.133602 3.762658
v -3.751314 -0.133602 3.012396
v -3.001050 -0.133602 3.012396
v -2.250788 -0.133602 3.012396
v -1.500525 -0.133602 3.012396
v -0.750263 -0.133602 3.012396
v -0.000000 -0.133602 3.012396
v 0.750262 -0.133602 3.012396
v 1.500525 -0.133602 3.012396
v 2.250787 0.016689 3.012396
v 3.001050 -0.133602 3.012396
v 3.751312 -0.133602 3.012396
v -3.751314 -0.133602 2.262134
v -3.001050 0.011945 2.262134
v -2.250788 -0.133602 2.262134
v -1.500525 0.425281 2.262134
v -0.750263 0.699624 2.262134
v -0.000000 0.475398 2.262134
v 0.750262 0.331702 2.262134
v 1.500525 0.118949 2.262134
v 2.250787 0.065132 2.262134
v 3.001050 -0.133602 2.262134
v 3.751312 -0.133602 2.262134
v -3.751314 -0.133602 1.511871
v -3.001050 -0.133602 1.511871
v -2.250788 0.158053 1.511871
v -1.500525 0.699624 1.511871
v -0.750263 0.897604 1.511871
v -0.000000 0.842470 1.511871
v 0.750262 0.419357 1.511871
v 1.500525 0.419357 1.511871
v 2.250787 -0.133602 1.511871
v 3.001050 -0.133602 1.511871
v 3.751312 -0.133602 1.511871
v -3.751314 -0.133602 0.761608
v -3.001050 -0.133602 0.418391
v -2.250788 0.108277 0.418391
v -1.500525 0.737637 0.761608
v -0.750263 1.160750 0.761608
v -0.000000 1.084349 0.761608
v 0.750262 1.146019 0.761608
v 1.500525 0.996294 0.761608
v 2.250787 0.697661 0.761608
v 3.001050 -0.133602 0.761608
v 3.751312 -0.133602 0.761608
v -3.751314 -0.133602 0.011346
v -3.001050 0.108277 -0.331872
v -2.250788 0.108277 -0.331872
v -1.500525 0.737637 0.011346
v -0.750263 0.737637 0.011346
v -0.000000 1.160750 0.011346
v 0.750262 0.685214 0.011346
v 1.500525 0.443334 0.011346
v 2.250787 0.443334 0.011346
v 3.001050 -0.133602 0.011346
v 3.751312 -0.133602 0.011346
v -3.751314 -0.133602 -0.738917
v -3.001050 0.108277 -0.738917
v -2.250788 0.401633 -0.738917
v -1.500525 0.108277 -0.738917
v -0.750263 0.108277 -0.738917
v -0.000000 0.435318 -0.738917
v 0.750262 0.685214 -0.738917
v 1.500525 0.810118 -0.738917
v 2.250787 0.443334 -0.738917
v 3.001050 -0.133602 -0.738917
v 3.751312 -0.133602 -0.738917
v -3.751314 -0.133602 -1.489179
v -3.001050 0.108277 -1.489179
v -2.250788 0.108277 -1.489179
v -1.500525 0.664227 -1.489179
v -0.750263 0.664227 -1.489179
v -0.000000 0.473386 -1.489179
v 0.750262 0.685214 -1.489179
v 1.500525 0.443334 -1.489179
v 2.250787 0.443334 -1.489179
v 3.001050 0.443334 -1.489179
v 3.751312 -0.133602 -1.489179
v -3.751314 -0.133602 -2.239441
v -3.001050 0.108277 -2.239441
v -2.250788 0.108277 -2.239441
v -1.500525 0.108277 -2.239441
v -0.750263 0.454274 -2.239441
v -0.000000 0.454274 -2.239441
v 0.750262 0.108277 -2.239441
v 1.500525 0.201294 -2.239441
v 2.250787 -0.133602 -2.239441
v 3.001050 -0.133602 -2.239441
v 3.751312 -0.133602 -2.239441
v -3.751314 -0.133602 -2.989704
v -3.001050 0.108277 -2.989704
v -2.250788 0.108277 -2.989704
v -1.500525 0.108277 -2.989704
v -0.750263 0.108277 -2.989704
v -0.000000 -0.133602 -2.989704
v 0.750262 -0.133602 -2.989704
v 1.500525 -0.133602 -2.989704
v 2.250787 -0.133602 -2.989704
v 3.001050 -0.133602 -2.989704
v 3.751312 -0.133602 -2.989704
v -3.751314 -0.133602 -3.739966
v -3.001050 -0.133602 -3.739966
v -2.250788 -0.133602 -3.739966
v -1.500525 -0.133602 -3.739966
v -0.750263 -0.133602 -3.739966
v -0.000000 -0.133602 -3.739966
v 0.750262 -0.133602 -3.739966
v 1.500525 -0.133602 -3.739966
v 2.250787 -0.133602 -3.739966
v 3.001050 -0.133602 -3.739966
v 3.751312 -0.133602 -3.739966
vt 0.000000 0.000000
vt 0.100000 0.000000
vt 0.100000 0.100000
vt 0.000000 0.100000
vt 0.200000 0.000000
vt 0.200000 0.100000
vt 0.300000 0.000000
vt 0.300000 0.100000
vt 0.400000 0.000000
vt 0.400000 0.100000
vt 0.500000 0.000000
vt 0.500000 0.100000
vt 0.600000 0.000000
vt 0.600000 0.100000
vt 0.700000 0.000000
vt 0.700000 0.100000
vt 0.800000 0.000000
vt 0.800000 0.100000
vt 0.900000 0.000000
vt 0.900000 0.100000
vt 1.000000 0.000000
vt 1.000000 0.100000
vt 0.100000 0.200000
vt 0.000000 0.200000
vt 0.200000 0.200000
vt 0.300000 0.200000
vt 0.400000 0.200000
vt 0.500000 0.200000
vt 0.600000 0.200000
vt 0.700000 0.200000
vt 0.800000 0.200000
vt 0.900000 0.200000
vt 1.000000 0.200000
vt 0.100000 0.300000
vt 0.000000 0.300000
vt 0.200000 0.300000
vt 0.300000 0.300000
vt 0.400000 0.300000
vt 0.500000 0.300000
vt 0.600000 0.300000
vt 0.700000 0.300000
vt 0.800000 0.300000
vt 0.900000 0.300000
vt 1.000000 0.300000
vt 0.100000 0.400000
vt 0.000000 0.400000
vt 0.200000 0.400000
vt 0.300000 0.400000
vt 0.400000 0.400000
vt 0.500000 0.400000
vt 0.600000 0.400000
vt 0.700000 0.400000
vt 0.800000 0.400000
vt 0.900000 0.400000
vt 1.000000 0.400000
vt 0.100000 0.500000
vt 0.000000 0.500000
vt 0.200000 0.500000
vt 0.300000 0.500000
vt 0.400000 0.500000
vt 0.500000 0.500000
vt 0.600000 0.500000
vt 0.700000 0.500000
vt 0.800000 0.500000
vt 0.900000 0.500000
vt 1.000000 0.500000
vt 0.100000 0.600000
vt 0.000000 0.600000
vt 0.200000 0.600000
vt 0.300000 0.600000
vt 0.400000 0.600000
vt 0.500000 0.600000
vt 0.600000 0.600000
vt 0.700000 0.600000
vt 0.800000 0.600000
vt 0.900000 0.600000
vt 1.000000 0.600000
vt 0.100000 0.700000
vt 0.000000 0.700000
vt 0.200000 0.700000
vt 0.300000 0.700000
vt 0.400000 0.700000
vt 0.500000 0.700000
vt 0.600000 0.700000
vt 0.700000 0.700000
vt 0.800000 0.700000
vt 0.900000 0.700000
vt 1.000000 0.700000
vt 0.100000 0.800000
vt 0.000000 0.800000
vt 0.200000 0.800000
vt 0.300000 0.800000
vt 0.400000 0.800000
vt 0.500000 0.800000
vt 0.600000 0.800000
vt 0.700000 0.800000
vt 0.800000 0.800000
vt 0.900000 0.800000
vt 1.000000 0.800000
vt 0.100000 0.900000
vt 0.000000 0.900000
vt 0.200000 0.900000
vt 0.300000 0.900000
vt 0.400000 0.900000
vt 0.500000 0.900000
vt 0.600000 0.900000
vt 0.700000 0.900000
vt 0.800000 0.900000
vt 0.900000 0.900000
vt 1.000000 0.900000
vt 0.100000 1.000000
vt 0.000000 1.000000
vt 0.200000 1.000000
vt 0.300000 1.000000
vt 0.400000 1.000000
vt 0.500000 1.000000
vt 0.600000 1.000000
vt 0.700000 1.000000
vt 0.800000 1.000000
vt 0.900000 1.000000
vt 1.000000 1.000000
vn 0.0000 1.0000 0.0000
vn -0.0992 0.9901 0.0992
vn 0.0992 0.9901 0.0992
vn -0.0961 0.9907 0.0961
vn 0.0961 0.9907 0.0961
vn -0.3295 0.8848 0.3295
vn -0.1328 0.7266 0.6741
vn 0.1071 0.7168 0.6890
vn 0.0776 0.8106 0.5804
vn 0.1269 0.8948 0.4281
vn -0.0629 0.9785 0.1963
vn 0.2264 0.9735 0.0314
vn -0.0961 0.9907 -0.0961
vn -0.0965 0.9907 0.0965
vn -0.5658 0.7715 0.2910
vn -0.2876 0.9136 0.2876
vn 0.1716 0.9220 0.3472
vn 0.3400 0.9000 0.2727
vn 0.1360 0.9592 0.2481
vn 0.3741 0.9252 0.0627
vn 0.1302 0.9829 -0.1302
vn -0.3349 0.9420 -0.0214
vn -0.6145 0.7889 -0.0050
vn -0.3760 0.9085 0.1823
vn 0.0828 0.9445 0.3179
vn 0.1984 0.8235 0.5315
vn 0.0751 0.7528 0.6540
vn 0.3824 0.6738 0.6323
vn 0.4361 0.7872 0.4361
vn -0.0860 0.9836 0.1586
vn -0.1572 0.9750 0.1572
vn -0.6427 0.7661 0.0000
vn -0.2619 0.9289 -0.2619
vn -0.2196 0.9505 -0.2196
vn 0.2581 0.9359 -0.2398
vn 0.2114 0.8099 -0.5472
vn 0.1726 0.8674 -0.4667
vn 0.6792 0.7237 -0.1227
vn -0.3068 0.9518 0.0000
vn -0.1809 0.9253 0.3334
vn -0.1496 0.9495 -0.2757
vn 0.0000 0.7661 -0.6427
vn -0.3479 0.6959 -0.6283
vn 0.1342 0.8922 -0.4313
vn 0.0755 0.9686 0.2368
vn 0.2310 0.9451 0.2310
vn 0.6096 0.7927 0.0000
vn -0.1884 0.9638 -0.1884
vn -0.1699 0.9707 0.1699
vn 0.0000 0.8035 0.5954
vn -0.0841 0.9265 0.3668
vn -0.2940 0.9555 0.0242
vn 0.0755 0.9686 -0.2368
vn 0.2310 0.9451 -0.2310
vn 0.3378 0.8785 0.3378
vn -0.3282 0.8858 -0.3282
vn -0.2012 0.8725 -0.4453
vn 0.1247 0.9808 -0.1497
vn 0.0828 0.9262 -0.3679
vn 0.0868 0.8745 -0.4773
vn 0.1923 0.8614 -0.4701
vn 0.0000 0.7927 -0.6096
vn 0.3378 0.8785 -0.3378
vn -0.2192 0.9507 -0.2192
vn 0.1356 0.8412 -0.5235
vn 0.1978 0.8578 -0.4744
vn -0.0578 0.9319 -0.3582
vn 0.2128 0.9536 -0.2128
vn -0.1572 0.9750 -0.1572
vn 0.0000 0.9518 -0.3068
vn 0.1572 0.9750 -0.1572
usemtl rubbish_material
s off
f 1/1/1 2/2/1 13/3/1 12/4/1
f 2/2/1 3/5/1 14/6/1 13/3/1
f 3/5/1 4/7/1 15/8/1 14/6/1
f 4/7/1 5/9/1 16/10/1 15/8/1
f 5/9/1 6/11/1 17/12/1 16/10/1
f 6/11/1 7/13/1 18/14/1 17/12/1
f 7/13/1 8/15/1 19/16/1 18/14/1
f 8/15/2 9/17/2 20/18/2 19/16/2
f 9/17/3 10/19/3 21/20/3 20/18/3
f 10/19/1 11/21/1 22/22/1 21/20/1
f 12/4/4 13/3/4 24/23/4 23/24/4
f 13/3/5 14/6/5 25/25/5 24/23/5
f 14/6/6 15/8/6 26/26/6 25/25/6
f 15/8/7 16/10/7 27/27/7 26/26/7
f 16/10/8 17/12/8 28/28/8 27/27/8
f 17/12/9 18/14/9 29/29/9 28/28/9
f 18/14/10 19/16/10 30/30/10 29/29/10
f 19/16/11 20/18/11 31/31/11 30/30/11
f 20/18/12 21/20/12 32/32/12 31/31/12
f 21/20/1 22/22/1 33/33/1 32/32/1
f 23/24/13 24/23/13 35/34/13 34/35/13
f 24/23/14 25/25/14 36/36/14 35/34/14
f 25/25/15 26/26/15 37/37/15 36/36/15
f 26/26/16 27/27/16 38/38/16 37/37/16
f 27/27/17 28/28/17 39/39/17 38/38/17
f 28/28/18 29/29/18 40/40/18 39/39/18
f 29/29/19 30/30/19 41/41/19 40/40/19
f 30/30/20 31/31/20 42/42/20 41/41/20
f 31/31/21 32/32/21 43/43/21 42/42/21
f 32/32/1 33/33/1 44/44/1 43/43/1
f 34/35/1 35/34/1 46/45/1 45/46/1
f 35/34/22 36/36/22 47/47/22 46/45/22
f 36/36/23 37/37/23 48/48/23 47/47/23
f 37/37/24 38/38/24 49/49/24 48/48/24
f 38/38/25 39/39/25 50/50/25 49/49/25
f 39/39/26 40/40/26 51/51/26 50/50/26
f 40/40/27 41/41/27 52/52/27 51/51/27
f 41/41/28 42/42/28 53/53/28 52/52/28
f 42/42/29 43/43/29 54/54/29 53/53/29
f 43/43/1 44/44/1 55/55/1 54/54/1
f 45/46/30 46/45/30 57/56/30 56/57/30
f 46/45/31 47/47/31 58/58/31 57/56/31
f 47/47/32 48/48/32 59/59/32 58/58/32
f 48/48/33 49/49/33 60/60/33 59/59/33
f 49/49/34 50/50/34 61/61/34 60/60/34
f 50/50/35 51/51/35 62/62/35 61/61/35
f 51/51/36 52/52/36 63/63/36 62/62/36
f 52/52/37 53/53/37 64/64/37 63/63/37
f 53/53/38 54/54/38 65/65/38 64/64/38
f 54/54/1 55/55/1 66/66/1 65/65/1
f 56/57/39 57/56/39 68/67/39 67/68/39
f 57/56/40 58/58/40 69/69/40 68/67/40
f 58/58/41 59/59/41 70/70/41 69/69/41
f 59/59/42 60/60/42 71/71/42 70/70/42
f 60/60/43 61/61/43 72/72/43 71/71/43
f 61/61/44 62/62/44 73/73/44 72/72/44
f 62/62/45 63/63/45 74/74/45 73/73/45
f 63/63/46 64/64/46 75/75/46 74/74/46
f 64/64/47 65/65/47 76/76/47 75/75/47
f 65/65/1 66/66/1 77/77/1 76/76/1
f 67/68/39 68/67/39 79/78/39 78/79/39
f 68/67/48 69/69/48 80/80/48 79/78/48
f 69/69/49 70/70/49 81/81/49 80/80/49
f 70/70/50 71/71/50 82/82/50 81/81/50
f 71/71/51 72/72/51 83/83/51 82/82/51
f 72/72/52 73/73/52 84/84/52 83/83/52
f 73/73/53 74/74/53 85/85/53 84/84/53
f 74/74/54 75/75/54 86/86/54 85/85/54
f 75/75/55 76/76/55 87/87/55 86/86/55
f 76/76/55 77/77/55 88/88/55 87/87/55
f 78/79/39 79/78/39 90/89/39 89/90/39
f 79/78/1 80/80/1 91/91/1 90/89/1
f 80/80/56 81/81/56 92/92/56 91/91/56
f 81/81/57 82/82/57 93/93/57 92/92/57
f 82/82/58 83/83/58 94/94/58 93/93/58
f 83/83/59 84/84/59 95/95/59 94/94/59
f 84/84/60 85/85/60 96/96/60 95/95/60
f 85/85/61 86/86/61 97/97/61 96/96/61
f 86/86/62 87/87/62 98/98/62 97/97/62
f 87/87/63 88/88/63 99/99/63 98/98/63
f 89/90/39 90/89/39 101/100/39 100/101/39
f 90/89/1 91/91/1 102/102/1 101/100/1
f 91/91/1 92/92/1 103/103/1 102/102/1
f 92/92/64 93/93/64 104/104/64 103/103/64
f 93/93/65 94/94/65 105/105/65 104/104/65
f 94/94/66 95/95/66 106/106/66 105/105/66
f 95/95/67 96/96/67 107/107/67 106/106/67
f 96/96/68 97/97/68 108/108/68 107/107/68
f 97/97/1 98/98/1 109/109/1 108/108/1
f 98/98/1 99/99/1 110/110/1 109/109/1
f 100/101/69 101/100/69 112/111/69 111/112/69
f 101/100/70 102/102/70 113/113/70 112/111/70
f 102/102/70 103/103/70 114/114/70 113/113/70
f 103/103/70 104/104/70 115/115/70 114/114/70
f 104/104/71 105/105/71 116/116/71 115/115/71
f 105/105/1 106/106/1 117/117/1 116/116/1
f 106/106/1 107/107/1 118/118/1 117/117/1
f 107/107/1 108/108/1 119/119/1 118/118/1
f 108/108/1 109/109/1 120/120/1 119/119/1
f 109/109/1 110/110/1 121/121/1 120/120/1
