# Blender v3.0.1 OBJ File: 'pillar0_3-4.blend'
# www.blender.org
mtllib pillar0_3-4.mtl
o pillar0_Cube
v -0.114742 0.000000 0.114698
v -0.114742 2.400000 0.114698
v 0.005258 1.679157 -0.124408
v 0.005258 1.679157 0.005592
v 0.115258 0.000000 0.114698
v 0.115258 2.400000 0.114698
v 0.115258 0.000000 -0.114408
v 0.115258 2.400000 -0.114408
v -0.098395 1.221323 0.098414
v 0.125258 1.679157 0.005592
v 0.098910 1.221323 -0.098124
v 0.098910 1.221323 0.098414
v -0.098395 1.736030 0.098414
v -0.124742 1.730132 0.005592
v 0.098910 1.736030 -0.098124
v 0.098910 1.736030 0.098414
v -0.124742 1.679157 0.005592
v 0.071064 0.418578 -0.070386
v 0.071064 0.418578 0.070676
v -0.070549 0.418578 0.070676
v -0.059343 2.241604 0.059514
v 0.125258 1.730132 0.005592
v 0.059858 2.241604 -0.059224
v 0.059858 2.241604 0.059514
v 0.005258 1.730132 0.125592
v 0.098910 1.478677 -0.098124
v 0.098910 1.478677 0.098414
v -0.098395 1.478677 0.098414
v -0.098395 0.963970 0.098414
v 0.005258 1.679157 0.125592
v 0.098910 0.963970 -0.098124
v 0.098910 0.963970 0.098414
v 0.005258 1.730132 -0.124408
v 0.115258 0.300000 -0.114408
v 0.115258 0.300000 0.114698
v -0.114742 0.300000 0.114698
v -0.124742 1.679157 0.125592
v -0.124742 1.730132 0.125592
v 0.125258 1.679157 0.125592
v 0.125258 1.730132 0.125592
v 0.125258 1.679157 -0.124408
v 0.125258 1.730132 -0.124408
v -0.124742 0.899157 0.125592
v -0.124742 0.950132 0.125592
v 0.125258 0.899157 0.125592
v 0.125258 0.950132 0.125592
v 0.125258 0.899157 -0.124408
v 0.125258 0.950132 -0.124408
v 0.000258 0.000000 -0.114408
v 0.000258 2.400000 -0.114408
v 0.000258 0.000000 0.114698
v 0.000258 2.400000 0.114698
v 0.000258 1.221323 0.098414
v 0.000258 1.221323 -0.098124
v 0.000258 1.736030 0.098414
v 0.000258 1.736030 -0.098124
v 0.000258 0.418578 -0.070386
v 0.000258 0.418578 0.070676
v 0.000258 2.241604 0.059514
v 0.000258 2.241604 -0.059224
v 0.000258 1.478677 -0.098124
v 0.000258 1.478677 0.098414
v 0.000258 0.963970 -0.098124
v 0.000258 0.963970 0.098414
v 0.000258 0.300000 0.114698
v 0.000258 0.300000 -0.114408
v -0.114742 0.000000 0.000145
v -0.114742 2.400000 0.000145
v 0.115258 0.000000 0.000145
v 0.115258 2.400000 0.000145
v 0.098910 1.221323 0.000145
v -0.098395 1.221323 0.000145
v 0.098910 1.736030 0.000145
v -0.098395 1.736030 0.000145
v -0.070549 0.418578 0.000145
v 0.071064 0.418578 0.000145
v 0.059858 2.241604 0.000145
v -0.059343 2.241604 0.000145
v -0.098395 1.478677 0.000145
v 0.098910 1.478677 0.000145
v -0.098395 0.963970 0.000145
v 0.098910 0.963970 0.000145
v 0.115258 0.300000 0.000145
v -0.114742 0.300000 0.000145
v -0.000000 2.400000 -0.000000
v 0.000258 0.000000 0.000145
v 0.005258 1.730132 0.005592
v 0.005258 0.899157 -0.124408
v 0.005258 0.950132 -0.124408
v 0.005258 0.899157 0.125592
v 0.005258 0.950132 0.125592
v 0.005258 0.899157 0.005592
v 0.005258 0.950132 0.005592
v -0.124742 0.899157 0.005592
v -0.124742 0.950132 0.005592
v 0.125258 0.899157 0.005592
v 0.125258 0.950132 0.005592
vt 0.227951 0.005494
vt 0.227951 0.053592
vt 0.114723 0.053592
vt 0.114723 0.005494
vt 0.143752 0.934106
vt 0.143752 1.000000
vt 0.095834 1.000000
vt 0.118918 0.934106
vt 0.239400 0.934107
vt 0.239400 1.000000
vt 0.191669 1.000000
vt 0.214662 0.934107
vt 0.047917 0.934106
vt 0.047917 1.000000
vt 0.000000 1.000000
vt 0.023083 0.934106
vt 0.430324 0.447921
vt 0.430324 0.495839
vt 0.382593 0.495839
vt 0.382593 0.447921
vt 0.525786 0.447921
vt 0.525786 0.495838
vt 0.478055 0.495838
vt 0.478055 0.447921
vt 0.179429 0.316150
vt 0.179429 0.208920
vt 0.220534 0.208920
vt 0.220534 0.316150
vt 0.096344 0.316150
vt 0.096345 0.208920
vt 0.137290 0.208920
vt 0.137290 0.316150
vt 0.131446 0.316150
vt 0.131446 0.208920
vt 0.172551 0.208920
vt 0.172551 0.316150
vt 0.227951 0.005494
vt 0.227951 0.053592
vt 0.114723 0.053592
vt 0.114723 0.005494
vt 0.179429 0.101689
vt 0.179429 -0.005541
vt 0.220534 -0.005541
vt 0.220534 0.101689
vt 0.096345 0.101689
vt 0.096345 -0.005542
vt 0.137290 -0.005542
vt 0.137290 0.101689
vt 0.131446 0.101689
vt 0.131446 -0.005541
vt 0.172551 -0.005541
vt 0.172551 0.101689
vt 0.162455 0.017774
vt 0.176734 0.017774
vt 0.176734 0.032053
vt 0.162455 0.032053
vt 0.382593 0.350004
vt 0.432593 0.350004
vt 0.432593 0.400004
vt 0.382593 0.400004
vt 0.143752 0.125000
vt 0.143752 0.174491
vt 0.114249 0.174491
vt 0.095835 0.125000
vt 0.239400 0.125000
vt 0.239400 0.174492
vt 0.210012 0.174492
vt 0.191669 0.125000
vt 0.047917 0.125000
vt 0.047917 0.174491
vt 0.018414 0.174491
vt 0.000000 0.125000
vt 0.047917 0.723377
vt 0.006812 0.723377
vt 0.239400 0.723377
vt 0.198454 0.723377
vt 0.143752 0.723377
vt 0.102646 0.723377
vt 0.227951 0.005494
vt 0.227951 0.053592
vt 0.114723 0.053592
vt 0.114723 0.005494
vt 0.227951 0.005494
vt 0.227951 0.053592
vt 0.114723 0.053592
vt 0.114723 0.005494
vt 0.227951 0.005494
vt 0.227951 0.053592
vt 0.114723 0.053592
vt 0.114723 0.005494
vt 0.118751 0.215162
vt 0.118751 -0.012032
vt 0.159856 -0.012032
vt 0.148253 0.215162
vt 0.090485 0.215161
vt 0.090485 -0.012032
vt 0.131431 -0.012032
vt 0.119873 0.215161
vt 0.172593 0.215162
vt 0.172593 -0.012032
vt 0.213698 -0.012032
vt 0.202096 0.215162
vt 0.047917 0.000000
vt 0.000000 0.000000
vt 0.141744 0.000000
vt 0.141744 0.125000
vt 0.094013 0.125000
vt 0.094013 0.000000
vt 0.086135 0.000000
vt 0.086134 0.125000
vt 0.038217 0.125000
vt 0.038217 0.000000
vt 0.085914 0.006213
vt 0.098258 0.006213
vt 0.098258 0.018557
vt 0.085914 0.018557
vt 0.114723 0.005494
vt 0.114723 0.053592
vt 0.001494 0.053591
vt 0.001494 0.005494
vt 0.001494 0.053592
vt 0.001494 0.005494
vt 0.114723 0.005494
vt 0.114723 0.053592
vt 0.001494 0.053592
vt 0.001494 0.005494
vt 0.098258 0.030902
vt 0.085914 0.030902
vt 0.432593 0.150001
vt 0.482594 0.150001
vt 0.482594 0.200002
vt 0.432593 0.200002
vt 0.114723 0.005493
vt 0.114723 0.053591
vt 0.001494 0.053591
vt 0.001494 0.005493
vt 0.001494 0.053592
vt 0.001494 0.005494
vt 0.001494 0.053592
vt 0.001494 0.005494
vt 0.191013 0.017774
vt 0.191013 0.032053
vt 0.482594 0.350004
vt 0.482594 0.400004
vt 0.095834 0.000000
vt 0.095834 0.125000
vt 0.143090 0.215162
vt 0.131487 -0.012032
vt 0.138323 0.208920
vt 0.138323 0.101689
vt 0.382593 0.100001
vt 0.432593 0.100001
vt 0.382593 0.150001
vt 0.176734 0.003495
vt 0.191013 0.003495
vt 0.089023 0.723377
vt 0.072751 0.934106
vt 0.077420 0.174491
vt 0.227951 0.005494
vt 0.227951 0.053592
vt 0.138323 -0.005541
vt 0.073570 0.018557
vt 0.073570 0.030902
vt 0.138323 0.316150
vt 0.525786 0.400004
vt 0.478055 0.400004
vt 0.430324 0.400004
vt 0.382593 0.400004
vt 0.095834 1.000000
vt 0.382593 0.200002
vt 0.573517 0.400004
vt 0.573517 0.447921
vt 0.237085 0.000000
vt 0.237085 0.125000
vt 0.189354 0.125000
vt 0.189354 0.000000
vt 0.189475 0.000000
vt 0.189475 0.125000
vt 0.061097 0.215161
vt 0.049539 -0.012032
vt 0.018369 0.215161
vt 0.006812 -0.012032
vt 0.047758 -0.012032
vt 0.047757 0.215161
vt 0.055399 0.208920
vt 0.055399 0.101689
vt 0.006812 0.208920
vt 0.006812 0.101689
vt 0.047758 0.101689
vt 0.047758 0.208920
vt 0.375808 0.723377
vt 0.359599 0.934107
vt 0.334862 0.934107
vt 0.334862 0.723377
vt 0.280346 0.723377
vt 0.264137 0.934107
vt 0.287131 0.125000
vt 0.268788 0.174492
vt 0.382593 0.125000
vt 0.364250 0.174492
vt 0.334862 0.174492
vt 0.334862 0.125000
vt 0.006812 -0.005541
vt 0.047758 -0.005541
vt 0.055399 -0.005542
vt 0.006812 0.316150
vt 0.047757 0.316150
vt 0.055399 0.316150
vt 0.478055 0.447921
vt 0.478055 0.495839
vt 0.287131 1.000000
vt 0.382593 1.000000
vt 0.334862 1.000000
vt 0.382593 0.300003
vt 0.432593 0.300003
vn -1.0000 -0.0000 0.0000
vn 0.0000 -0.3290 -0.9443
vn 0.9439 -0.3301 0.0000
vn 0.0000 -0.3290 0.9443
vn 0.0000 -1.0000 0.0000
vn 0.0000 1.0000 0.0000
vn 0.0000 0.0000 1.0000
vn 1.0000 0.0000 0.0000
vn 0.0000 0.0000 -1.0000
vn 0.0000 0.3480 -0.9375
vn 0.9370 0.3492 0.0000
vn 0.0000 0.3480 0.9375
vn 0.0000 0.0767 0.9971
vn 0.9970 0.0770 0.0000
vn 0.0000 0.0767 -0.9971
vn 0.0000 -0.0508 -0.9987
vn 0.9987 -0.0510 0.0000
vn 0.0000 -0.0508 0.9987
vn -0.9987 -0.0510 0.0000
vn -0.9970 0.0770 0.0000
vn -0.9370 0.3492 0.0000
vn -0.9439 -0.3301 0.0000
usemtl pillar0_material
s off
f 43/1/1 44/2/1 95/3/1 94/4/1
f 60/5/2 50/6/2 8/7/2 23/8/2
f 77/9/3 70/10/3 6/11/3 24/12/3
f 59/13/4 52/14/4 2/15/4 21/16/4
f 86/17/5 69/18/5 5/19/5 51/20/5
f 85/21/6 68/22/6 2/23/6 52/24/6
f 64/25/7 53/26/7 9/27/7 29/28/7
f 82/29/8 71/30/8 12/31/8 32/32/8
f 63/33/9 54/34/9 11/35/9 31/36/9
f 45/37/7 46/38/7 91/39/7 90/40/7
f 62/41/7 55/42/7 13/43/7 28/44/7
f 80/45/8 73/46/8 16/47/8 27/48/8
f 61/49/9 56/50/9 15/51/9 26/52/9
f 94/53/5 92/54/5 90/55/5 43/56/5
f 97/57/6 93/58/6 91/59/6 46/60/6
f 66/61/10 57/62/10 18/63/10 34/64/10
f 83/65/11 76/66/11 19/67/11 35/68/11
f 65/69/12 58/70/12 20/71/12 36/72/12
f 55/73/13 59/13/13 21/16/13 13/74/13
f 73/75/14 77/9/14 24/12/14 16/76/14
f 56/77/15 60/5/15 23/8/15 15/78/15
f 47/79/8 48/80/8 97/81/8 96/82/8
f 37/83/1 38/84/1 14/85/1 17/86/1
f 54/34/9 61/49/9 26/52/9 11/35/9
f 71/30/8 80/45/8 27/48/8 12/31/8
f 53/26/7 62/41/7 28/44/7 9/27/7
f 41/87/8 42/88/8 22/89/8 10/90/8
f 57/91/16 63/92/16 31/93/16 18/94/16
f 76/95/17 82/96/17 32/97/17 19/98/17
f 58/99/18 64/100/18 29/101/18 20/102/18
f 51/103/7 65/69/7 36/72/7 1/104/7
f 69/105/8 83/106/8 35/107/8 5/108/8
f 49/109/9 66/110/9 34/111/9 7/112/9
f 3/113/5 41/114/5 10/115/5 4/116/5
f 3/117/9 33/118/9 42/119/9 41/120/9
f 10/90/8 22/89/8 40/121/8 39/122/8
f 30/123/7 25/124/7 38/125/7 37/126/7
f 4/116/5 10/115/5 39/127/5 30/128/5
f 87/129/6 14/130/6 38/131/6 25/132/6
f 88/133/9 89/134/9 48/135/9 47/136/9
f 96/82/8 97/81/8 46/137/8 45/138/8
f 90/40/7 91/39/7 44/139/7 43/140/7
f 92/54/5 96/141/5 45/142/5 90/55/5
f 93/58/6 95/143/6 44/144/6 91/59/6
f 5/145/7 35/146/7 65/69/7 51/103/7
f 19/147/18 32/148/18 64/100/18 58/99/18
f 12/149/7 27/150/7 62/41/7 53/26/7
f 42/151/6 33/152/6 87/129/6 22/153/6
f 88/154/5 47/155/5 96/141/5 92/54/5
f 16/156/13 24/157/13 59/13/13 55/73/13
f 35/146/12 19/158/12 58/70/12 65/69/12
f 39/159/7 40/160/7 25/124/7 30/123/7
f 27/150/7 16/161/7 55/42/7 62/41/7
f 17/162/5 4/116/5 30/128/5 37/163/5
f 32/164/7 12/149/7 53/26/7 64/25/7
f 70/165/6 85/21/6 52/24/6 6/166/6
f 67/167/5 86/17/5 51/20/5 1/168/5
f 24/157/4 6/169/4 52/14/4 59/13/4
f 22/153/6 87/129/6 25/132/6 40/170/6
f 8/171/6 50/172/6 85/21/6 70/165/6
f 1/173/1 36/174/1 84/175/1 67/176/1
f 7/177/8 34/178/8 83/106/8 69/105/8
f 18/179/17 31/180/17 82/96/17 76/95/17
f 20/181/19 29/182/19 81/183/19 75/184/19
f 11/185/8 26/186/8 80/45/8 71/30/8
f 9/187/1 28/188/1 79/189/1 72/190/1
f 13/191/20 21/192/20 78/193/20 74/194/20
f 15/195/14 23/196/14 77/9/14 73/75/14
f 34/197/11 18/198/11 76/66/11 83/65/11
f 36/199/21 20/200/21 75/201/21 84/202/21
f 28/188/1 13/203/1 74/204/1 79/189/1
f 26/186/8 15/205/8 73/46/8 80/45/8
f 29/206/1 9/187/1 72/190/1 81/207/1
f 31/208/8 11/185/8 71/30/8 82/29/8
f 49/209/5 7/210/5 69/18/5 86/17/5
f 23/196/3 8/211/3 70/10/3 77/9/3
f 21/192/22 2/212/22 68/213/22 78/193/22
f 48/214/6 89/215/6 93/58/6 97/57/6
