# Blender v3.0.1 OBJ File: 'stairbanister.blend'
# www.blender.org
mtllib stairbanister.mtl
o stairbanister_Plane
v -2.600000 0.000000 -0.000500
v -2.600000 1.300000 -0.000500
v -0.000001 2.220000 -0.000500
v -0.000001 3.500000 -0.000500
v -1.300001 1.110000 0.000500
v -2.600000 0.000000 0.000500
v -2.600000 1.300000 0.000500
v -1.300000 2.400000 0.000500
v -0.000001 3.500000 0.000500
v -0.000001 2.220000 0.000500
v -1.300000 2.400000 -0.000500
v -1.300001 1.110000 -0.000500
vt 0.428040 0.068610
vt 0.428040 0.612137
vt 0.002090 1.000000
vt 0.002090 0.449978
vt 0.002090 0.449978
vt 0.002090 1.000000
vt 0.428040 0.612137
vt 0.428040 0.068610
vt 0.143466 0.208194
vt 0.143466 0.208194
vt 0.141999 0.101829
vt 0.141999 0.101829
vt 0.240706 0.067596
vt 0.240706 0.067596
vt 0.240715 0.127671
vt 0.240715 0.127671
vt 0.002090 0.449978
vt 0.002090 1.000000
vt 0.428040 0.612137
vt 0.428040 0.068610
vt 0.428040 0.068610
vt 0.428040 0.612137
vt 0.002090 1.000000
vt 0.002090 0.449978
vn -0.0000 0.0000 -1.0000
vn 0.0000 -0.0000 1.0000
vn 1.0000 -0.0000 0.0000
vn -1.0000 0.0000 0.0000
usemtl stairbansiter_material
s off
f 12/1/1 11/2/1 4/3/1 3/4/1
f 10/5/2 9/6/2 8/7/2 5/8/2
f 4/9/3 9/10/3 10/11/3 3/12/3
f 1/13/4 6/14/4 7/15/4 2/16/4
f 5/17/2 8/18/2 7/19/2 6/20/2
f 1/21/1 2/22/1 11/23/1 12/24/1
