# Blender v3.0.1 OBJ File: 'window_ray.blend'
# www.blender.org
mtllib window_ray.mtl
o window_ray_Cube
v -0.782120 -0.082713 1.462739
v -0.782120 1.293741 1.994033
v -0.523929 1.090723 -0.053030
v -0.523929 2.219089 -0.053030
v 0.788911 -0.082713 1.462739
v 0.788911 1.293741 1.994033
v 0.530720 1.090723 -0.053030
v 0.530720 2.219089 -0.053030
vt 0.152357 0.003066
vt 0.778308 0.038224
vt 0.778308 0.999202
vt 0.340856 0.803115
vt 0.638439 0.796292
vt 0.214174 0.986468
vt 0.214174 0.054458
vt 0.821256 0.020361
vt 0.809164 0.992437
vt 0.204404 0.992437
vt 0.056351 0.007238
vt 0.957217 0.007238
vt 0.817950 0.995804
vt 0.175098 0.995804
vt 0.026026 0.007720
vt 0.960183 0.007720
vn -0.9914 0.0271 -0.1277
vn 0.9914 0.0271 -0.1277
vn 0.0000 -0.7907 -0.6122
vn 0.0000 0.9112 0.4119
usemtl window_ray_material
s off
f 1/1/1 2/2/1 4/3/1 3/4/1
f 7/5/2 8/6/2 6/7/2 5/8/2
f 3/9/3 7/10/3 5/11/3 1/12/3
f 8/13/4 4/14/4 2/15/4 6/16/4
