# Blender v3.0.1 OBJ File: 'window_clean.blend'
# www.blender.org
mtllib window_clean.mtl
o window_clean_Plane
v -0.523929 2.219089 -0.049106
v 0.530720 2.219089 -0.049106
v -0.523929 1.090723 -0.049106
v 0.530720 1.090723 -0.049106
v -0.523929 1.090723 -0.053030
v -0.523929 2.219089 -0.053030
v 0.530720 2.219089 -0.053030
v 0.530720 1.090723 -0.053030
vt 0.733121 0.607903
vt 0.733121 0.043088
vt 0.282734 0.043088
vt 0.282734 0.607902
vt 0.725141 0.607903
vt 0.274754 0.607902
vt 0.274754 0.043088
vt 0.725141 0.043088
vt 0.282734 0.043088
vt 0.282734 0.607902
vt 0.733121 0.607903
vt 0.733121 0.043088
vn 0.0000 -0.0000 1.0000
vn 0.0000 0.0000 -1.0000
vn 1.0000 0.0000 0.0000
vn -1.0000 0.0000 0.0000
vn 0.0000 -1.0000 0.0000
vn 0.0000 1.0000 0.0000
usemtl window_clean_material
s off
f 1/1/1 3/2/1 4/3/1 2/4/1
f 6/5/2 7/6/2 8/7/2 5/8/2
f 2/4/3 4/3/3 8/9/3 7/10/3
f 3/2/4 1/1/4 6/11/4 5/12/4
f 4/3/5 3/2/5 5/12/5 8/9/5
f 1/1/6 2/4/6 7/10/6 6/11/6
