# Blender v3.0.1 OBJ File: 'book0.blend'
# www.blender.org
mtllib book0.mtl
o book0_Cube
v 0.200838 -0.000201 0.143090
v -0.200838 -0.000201 0.143090
v 0.200838 -0.000201 -0.154214
v -0.200838 -0.000201 -0.154214
v 0.200838 0.088201 0.143090
v -0.200838 0.088201 0.143090
v 0.200838 0.088201 -0.154214
v -0.200838 0.088201 -0.154214
v 0.200838 0.010849 0.143090
v -0.200838 0.010849 0.143090
v -0.200838 0.077151 0.143090
v 0.200838 0.077151 0.143090
v -0.200838 0.077151 -0.154214
v 0.200838 0.077151 0.154214
v 0.200838 0.077151 -0.154214
v -0.200838 0.077151 0.154214
v 0.200838 0.010849 -0.154214
v -0.200838 0.010849 0.154214
v -0.200838 0.010849 -0.154214
v 0.200838 0.010849 0.154214
vt 0.003307 0.998519
vt 0.003307 0.501481
vt 0.371193 0.501481
vt 0.371193 0.998519
vt 0.175812 0.585041
vt 0.175812 0.908217
vt 0.166921 0.908217
vt 0.166921 0.585041
vt 0.371193 0.501481
vt 0.371193 0.998519
vt 0.003307 0.998519
vt 0.003307 0.501481
vt 0.256006 0.533153
vt 0.256006 0.966847
vt 0.243994 0.966847
vt 0.243994 0.533153
vt 0.244785 0.549899
vt 0.259107 0.549899
vt 0.259107 0.935227
vt 0.244785 0.935227
vt 0.244785 0.549899
vt 0.259107 0.549899
vt 0.259107 0.935227
vt 0.244785 0.935227
vt 0.144531 0.935227
vt 0.158853 0.935227
vt 0.158853 0.949646
vt 0.244785 0.949646
vt 0.244785 0.949646
vt 0.158853 0.935227
vt 0.158853 0.949646
vt 0.455728 0.520602
vt 0.541660 0.520602
vt 0.541660 0.905930
vt 0.455728 0.905930
vt 0.541660 0.520602
vt 0.541660 0.905930
vt 0.455728 0.905930
vt 0.455728 0.520602
vt 0.144531 0.549899
vt 0.158853 0.549899
vt 0.144531 0.935227
vt 0.220480 0.533153
vt 0.220480 0.966847
vt 0.208469 0.966847
vt 0.208469 0.533153
vt 0.144531 0.549899
vt 0.158853 0.549899
vt 0.238046 0.585041
vt 0.238046 0.908217
vt 0.229156 0.908217
vt 0.229156 0.585041
vt 0.542325 0.503906
vt 0.542325 0.999118
vt 0.456393 0.999118
vt 0.456393 0.503906
vt 0.089207 0.533153
vt 0.160793 0.533153
vt 0.160793 0.966847
vt 0.089207 0.966847
vn -0.0000 -1.0000 0.0000
vn -0.0000 0.0000 -1.0000
vn 0.0000 1.0000 0.0000
vn -0.0000 -0.7095 0.7047
vn 1.0000 0.0000 0.0000
vn -1.0000 -0.0000 0.0000
vn 0.0000 0.7095 0.7047
vn 0.0000 0.0000 1.0000
usemtl book0_material
s off
f 1/1/1 2/2/1 4/3/1 3/4/1
f 15/5/2 13/6/2 8/7/2 7/8/2
f 7/9/3 8/10/3 6/11/3 5/12/3
f 20/13/4 18/14/4 2/15/4 1/16/4
f 15/17/5 7/18/5 5/19/5 12/20/5
f 19/21/6 4/22/6 2/23/6 10/24/6
f 1/25/5 9/26/5 20/27/5
f 9/26/5 12/20/5 14/28/5 20/27/5
f 10/24/6 2/23/6 18/29/6
f 11/30/6 10/24/6 18/29/6 16/31/6
f 12/20/5 5/19/5 14/28/5
f 17/32/5 15/33/5 12/34/5 9/35/5
f 19/36/6 10/37/6 11/38/6 13/39/6
f 8/40/6 13/41/6 11/30/6 6/42/6
f 5/43/7 6/44/7 16/45/7 14/46/7
f 6/42/6 11/30/6 16/31/6
f 3/47/5 17/48/5 9/26/5 1/25/5
f 3/49/2 4/50/2 19/51/2 17/52/2
f 17/53/2 19/54/2 13/55/2 15/56/2
f 20/57/8 14/58/8 16/59/8 18/60/8
