# Blender v3.0.1 OBJ File: 'candle0.blend'
# www.blender.org
mtllib candle0.mtl
o candle0_Cylinder
v 0.000000 0.000748 -0.020000
v -0.000000 0.082810 -0.013306
v 0.027634 0.000748 -0.006180
v 0.012655 0.082810 -0.004112
v 0.011756 0.000748 0.016180
v 0.007821 0.082810 0.010765
v -0.011756 0.000748 0.016180
v -0.007821 0.082810 0.010765
v -0.019021 0.000748 -0.006180
v -0.012655 0.082810 -0.004112
v 0.019021 0.085127 -0.006180
v 0.000000 0.085127 -0.020000
v 0.011756 0.085127 0.016180
v -0.011756 0.085127 0.016180
v -0.019021 0.082450 -0.006180
v 0.019021 0.016035 -0.006180
v -0.001303 0.090861 0.000000
v 0.001303 0.090861 0.000000
v -0.001303 0.032419 -0.000000
v 0.001303 0.032419 -0.000000
v -0.001303 0.032419 -0.000328
v -0.001303 0.090861 -0.000328
v 0.001303 0.090861 -0.000328
v 0.001303 0.032419 -0.000328
vt 0.566964 0.250826
vt 0.549693 0.659284
vt 0.443782 0.660467
vt 0.457924 0.326013
vt 0.560801 0.247798
vt 0.547076 0.322272
vt 0.434888 0.651680
vt 0.434888 0.249239
vt 0.568703 0.243204
vt 0.568703 0.656135
vt 0.433416 0.656135
vt 0.433416 0.243204
vt 0.401892 0.573719
vt 0.474465 0.472485
vt 0.593275 0.510538
vt 0.594130 0.635290
vt 0.475849 0.674338
vt 0.563074 0.248119
vt 0.563074 0.662293
vt 0.436697 0.647906
vt 0.436697 0.248119
vt 0.539980 0.264464
vt 0.525681 0.651848
vt 0.461347 0.650837
vt 0.476115 0.252374
vt 0.515664 0.336716
vt 0.556481 0.284797
vt 0.596472 0.327658
vt 0.586363 0.376886
vt 0.536421 0.382484
vt 0.564897 0.670290
vt 0.440366 0.667599
vt 0.408745 0.623259
vt 0.595920 0.627304
vt 0.561568 0.667700
vt 0.436725 0.664843
vt 0.406343 0.619646
vt 0.593986 0.623940
vt 0.564733 0.668239
vt 0.440183 0.666644
vt 0.410657 0.622616
vt 0.597860 0.625013
vt 0.569507 0.669022
vt 0.444768 0.667017
vt 0.414078 0.623193
vt 0.602481 0.627513
vt 0.564616 0.668606
vt 0.439879 0.666533
vt 0.408278 0.623969
vt 0.596721 0.625809
vt 0.420161 0.249075
vt 0.547076 0.651798
vt 0.512985 0.747593
vt 0.512985 0.707755
vt 0.502448 0.707704
vt 0.502448 0.747541
vt 0.512985 0.747593
vt 0.502448 0.747541
vt 0.502448 0.707704
vt 0.512985 0.707755
vn 0.5878 0.0000 -0.8090
vn 0.9305 0.0804 0.3573
vn -0.0000 0.0000 1.0000
vn 0.0000 1.0000 0.0000
vn -0.9511 0.0000 0.3090
vn -0.5878 0.0000 -0.8090
vn 0.0000 -1.0000 0.0000
vn -0.2312 0.9194 0.3182
vn -0.3741 0.9194 -0.1215
vn 0.0000 0.9194 -0.3933
vn 0.1479 0.9819 -0.1186
vn 0.0499 0.9819 0.1829
vn 0.4337 0.2444 -0.8673
vn 0.9511 0.0000 0.3090
vn 0.0000 0.0000 -1.0000
vn 1.0000 0.0000 0.0000
vn -1.0000 0.0000 0.0000
usemtl candle_material
s off
f 1/1/1 12/2/1 11/3/1 16/4/1
f 3/5/2 16/6/2 13/7/2 5/8/2
f 5/9/3 13/10/3 14/11/3 7/12/3
f 4/13/4 2/14/4 10/15/4 8/16/4 6/17/4
f 7/18/5 14/19/5 15/20/5 9/21/5
f 9/22/6 15/23/6 12/24/6 1/25/6
f 1/26/7 3/27/7 5/28/7 7/29/7 9/30/7
f 2/31/8 4/32/8 11/33/8 12/34/8
f 4/35/9 6/36/9 13/37/9 11/38/9
f 6/39/10 8/40/10 14/41/10 13/42/10
f 8/43/11 10/44/11 15/45/11 14/46/11
f 10/47/12 2/48/12 12/49/12 15/50/12
f 16/4/13 3/51/13 1/1/13
f 13/7/14 16/6/14 11/52/14
f 17/53/3 19/54/3 20/55/3 18/56/3
f 22/57/15 23/58/15 24/59/15 21/60/15
f 18/56/16 20/55/16 24/59/16 23/58/16
f 19/54/17 17/53/17 22/57/17 21/60/17
f 20/55/7 19/54/7 21/60/7 24/59/7
f 17/53/4 18/56/4 23/58/4 22/57/4
