# Blender v3.0.1 OBJ File: 'drawers.blend'
# www.blender.org
mtllib drawers.mtl
o drawers_Cube.001
v -0.515824 -0.003953 0.287019
v -0.515824 0.924597 0.287019
v -0.515824 -0.003953 -0.136788
v -0.515824 0.924597 -0.136788
v 0.515824 -0.003953 0.287019
v 0.515824 0.924597 0.287019
v 0.515824 -0.003953 -0.136788
v 0.515824 0.924597 -0.136788
vt 0.997860 0.996644
vt 0.726770 0.996644
vt 0.726770 0.698946
vt 0.997860 0.698946
vt 0.986018 0.987235
vt 0.730853 0.987235
vt 0.730853 0.487235
vt 0.986018 0.487235
vt 0.997860 0.698946
vt 0.726770 0.698946
vt 0.726770 0.323737
vt 0.997860 0.323737
vt 0.709133 0.328771
vt 0.717746 0.997348
vt 0.002427 0.989966
vt 0.009809 0.318928
vt 0.962344 0.378248
vt 0.962344 0.878248
vt 0.746806 0.878248
vt 0.746806 0.378248
vt 0.032927 0.067842
vt 0.677987 0.067842
vt 0.677987 0.311467
vt 0.032927 0.311467
vn -1.0000 0.0000 0.0000
vn 0.0000 0.0000 -1.0000
vn 1.0000 0.0000 0.0000
vn 0.0000 0.0000 1.0000
vn 0.0000 -1.0000 0.0000
vn 0.0000 1.0000 0.0000
usemtl drawers_material
s off
f 1/1/1 2/2/1 4/3/1 3/4/1
f 3/5/2 4/6/2 8/7/2 7/8/2
f 7/9/3 8/10/3 6/11/3 5/12/3
f 5/13/4 6/14/4 2/15/4 1/16/4
f 3/17/5 7/18/5 5/19/5 1/20/5
f 8/21/6 4/22/6 2/23/6 6/24/6
