# Blender v3.0.1 OBJ File: 'single_sofa.blend'
# www.blender.org
mtllib single_sofa.mtl
o sofa_Cylinder.001
v -0.449159 0.811494 -0.361666
v -0.449159 0.811494 0.251390
v -0.309407 0.730808 -0.361666
v -0.309407 0.730808 0.251390
v -0.309407 0.569436 -0.361666
v -0.309407 0.569436 0.251390
v -0.471305 0.416152 -0.361666
v -0.471305 0.416152 0.251390
v -0.588912 0.569436 -0.361666
v -0.588912 0.569436 0.251390
v -0.588912 0.730808 -0.361666
v -0.588912 0.730808 0.251390
v -0.225930 0.416203 0.251390
v -0.225930 0.416203 -0.361666
v -0.384274 0.105692 -0.361666
v -0.384274 0.105692 0.251390
v -0.398432 0.001192 0.249355
v -0.398432 0.001192 -0.512070
v 0.398432 0.001192 0.249355
v 0.398432 0.001192 -0.512070
v 0.449159 0.811494 0.252598
v 0.449159 0.811494 -0.360458
v 0.309407 0.730808 0.252598
v 0.309407 0.730808 -0.360458
v 0.309407 0.569436 0.252598
v 0.309407 0.569436 -0.360458
v 0.471305 0.416152 0.252598
v 0.471305 0.416152 -0.360458
v 0.588912 0.569436 0.252598
v 0.588912 0.569436 -0.360458
v 0.588912 0.730808 0.252598
v 0.588912 0.730808 -0.360458
v 0.225930 0.416203 -0.360458
v 0.225930 0.416203 0.252598
v 0.384275 0.105692 0.252598
v 0.384274 0.105692 -0.360458
v -0.472296 1.226721 -0.434029
v -0.472296 1.226636 -0.615369
v 0.472296 1.226721 -0.434029
v 0.472296 1.226636 -0.615369
v -0.424266 0.429797 -0.548199
v 0.424271 0.429877 -0.548206
v -0.448275 0.828115 -0.581775
v 0.449769 0.852916 -0.583866
vt 0.900203 0.599082
vt 0.900203 0.399415
vt 0.945720 0.399417
vt 0.945720 0.599084
vt 0.838677 0.199973
vt 0.838677 0.000319
vt 0.891233 0.000315
vt 0.891233 0.199969
vt 0.022766 0.593731
vt 0.222420 0.593637
vt 0.222893 0.643832
vt 0.023240 0.643926
vt 0.837676 1.029208
vt 0.686313 0.972341
vt 0.678283 0.835039
vt 0.813804 0.756558
vt 0.977475 0.763710
vt 0.981009 0.950727
vt 0.222913 0.696388
vt 0.023260 0.696482
vt 0.854687 0.599084
vt 0.854687 0.399417
vt 0.593627 0.307168
vt 0.634663 0.259532
vt 0.634663 0.388330
vt 0.590688 0.359576
vt 0.940939 0.000000
vt 0.940939 0.199654
vt 0.589816 0.534729
vt 0.390163 0.534823
vt 0.389787 0.433509
vt 0.589441 0.433415
vt 0.662091 0.194663
vt 0.134090 0.194912
vt 0.004663 0.004291
vt 0.660448 0.003983
vt 0.666857 0.004910
vt 0.534680 0.175913
vt -0.000220 0.175661
vt 0.002503 0.004597
vt 0.838677 0.000000
vt 0.838677 0.259532
vt 0.590688 0.259532
vt 0.590688 0.000000
vt 0.222913 0.766361
vt 0.370081 0.765968
vt 0.370081 0.965635
vt 0.222913 0.966028
vt 0.517864 0.765968
vt 0.517864 0.965635
vt 0.472348 0.965637
vt 0.472348 0.765970
vt 0.370081 0.965621
vt 0.370081 0.765968
vt 0.422637 0.765972
vt 0.422637 0.965625
vt 0.308122 0.135319
vt 0.507777 0.135413
vt 0.507320 0.185615
vt 0.307666 0.185521
vt 0.678638 0.388330
vt 0.637602 0.340693
vt 0.634663 0.288285
vt 0.678638 0.259532
vt 0.507300 0.238172
vt 0.307645 0.238078
vt 0.563380 0.765970
vt 0.563380 0.965637
vt 0.892724 0.712430
vt 0.751467 0.793416
vt 0.559931 0.741581
vt 0.545749 0.557694
vt 0.705894 0.501762
vt 0.841522 0.557953
vt 0.472348 0.766299
vt 0.472348 0.965952
vt 0.318653 0.620624
vt 0.118998 0.620530
vt 0.119361 0.519211
vt 0.319016 0.519305
vt 0.078822 0.491338
vt 0.128738 0.438609
vt 0.128720 0.518526
vt 0.078827 0.692881
vt 0.128726 0.665693
vt 0.128742 0.745610
vt 0.017270 0.175973
vt 0.000643 0.000617
vt 0.714720 0.000627
vt 0.698098 0.175956
vt 0.229839 0.717264
vt 0.229834 0.466954
vt 1.000000 0.000000
vt 1.000000 0.307645
vt 0.940939 0.307645
vt 0.940939 0.000000
vt 0.388078 0.876032
vt 0.252429 0.868484
vt 0.252422 0.575909
vt 0.388078 0.568386
vt 0.368351 0.485328
vt 0.379970 0.625011
vt 0.340847 0.399532
vt 0.348697 0.815758
vt 0.089165 0.815758
vt 0.080751 0.675749
vt 0.357112 0.675723
vt 0.329235 0.539187
vt 0.390127 0.663528
vt 0.318443 0.668973
vt 0.072932 0.545634
vt 0.365417 0.537533
vt 0.569094 0.139799
vt 0.580559 0.277642
vt 0.507809 0.264116
vt 0.226155 0.822968
vt 0.173606 0.822968
vt 0.123708 0.795781
vt 0.123701 0.648614
vt 0.173599 0.621426
vt 0.226148 0.621425
vt 0.366702 0.798826
vt 0.307645 0.798826
vt 0.590688 0.399415
vt 0.531631 0.399415
vt 0.065108 0.415453
vt 0.372754 0.415453
vn 0.5000 0.8660 -0.0000
vn 1.0000 0.0000 0.0000
vn -0.7934 -0.6087 0.0000
vn 0.0000 0.0000 1.0000
vn -1.0000 0.0000 0.0000
vn -0.5000 0.8660 -0.0000
vn -0.0000 0.0000 -1.0000
vn 0.8781 0.4784 -0.0000
vn -0.9629 -0.2699 0.0000
vn -0.9909 0.1343 -0.0000
vn 0.9909 0.1342 -0.0000
vn 0.0000 -1.0000 0.0000
vn 0.0000 1.0000 0.0000
vn 0.7934 -0.6087 -0.0000
vn -0.8781 0.4784 0.0000
vn 0.9629 -0.2699 -0.0000
vn -0.0008 -0.0252 0.9997
vn -0.0014 -0.0000 1.0000
vn 0.0000 1.0000 -0.0005
vn -0.0006 0.1731 0.9849
vn 0.9656 -0.0791 -0.2477
vn -0.9277 -0.2600 0.2680
vn -0.0000 -0.0840 -0.9965
vn -0.9930 -0.0073 -0.1176
vn 0.9935 -0.0090 -0.1134
vn 0.9282 -0.2602 0.2660
vn -0.9652 -0.0792 -0.2492
vn -0.0020 0.0000 1.0000
vn -0.9983 -0.0585 -0.0046
vn 0.9983 -0.0584 -0.0045
usemtl sofa_material
s off
f 1/1/1 2/2/1 4/3/1 3/4/1
f 3/5/2 4/6/2 6/7/2 5/8/2
f 7/9/3 8/10/3 10/11/3 9/12/3
f 4/13/4 2/14/4 12/15/4 10/16/4 8/17/4 6/18/4
f 9/12/5 10/11/5 12/19/5 11/20/5
f 11/21/6 12/22/6 2/2/6 1/1/6
f 30/23/7 28/24/7 22/25/7 32/26/7
f 5/8/8 6/7/8 13/27/8 14/28/8
f 8/29/9 7/30/9 15/31/9 16/32/9
f 16/33/10 15/34/10 18/35/10 17/36/10
f 20/37/11 36/38/11 35/39/11 19/40/11
f 18/41/12 20/42/12 19/43/12 17/44/12
f 13/45/13 34/46/13 33/47/13 14/48/13
f 21/49/6 22/50/6 24/51/6 23/52/6
f 23/53/5 24/54/5 26/55/5 25/56/5
f 27/57/14 28/58/14 30/59/14 29/60/14
f 7/61/7 9/62/7 11/63/7 1/64/7
f 29/60/2 30/59/2 32/65/2 31/66/2
f 31/67/1 32/68/1 22/50/1 21/49/1
f 21/69/4 23/70/4 25/71/4 27/72/4 29/73/4 31/74/4
f 25/56/15 26/55/15 33/75/15 34/76/15
f 28/77/16 27/78/16 35/79/16 36/80/16
f 6/81/4 8/82/4 13/83/4
f 25/84/4 34/85/4 27/86/4
f 16/87/17 17/88/17 19/89/17 35/90/17
f 35/91/18 27/86/18 34/85/18 13/83/18 8/82/18 16/92/18
f 40/93/19 38/94/19 37/95/19 39/96/19
f 37/97/20 1/98/20 22/99/20 39/100/20
f 20/101/21 42/102/21 28/77/21
f 15/31/22 7/30/22 18/103/22
f 20/104/23 18/105/23 41/106/23 42/107/23
f 41/108/24 7/30/24 1/109/24 43/110/24
f 42/107/23 41/106/23 43/111/23 44/112/23
f 28/58/25 42/113/25 44/114/25 22/115/25
f 28/77/26 36/80/26 20/101/26
f 18/103/27 7/30/27 41/108/27
f 22/99/28 1/98/28 3/116/28 5/117/28 14/118/28 33/119/28 26/120/28 24/121/28
f 43/110/29 1/109/29 37/122/29 38/123/29
f 22/115/30 44/114/30 40/124/30 39/125/30
f 44/112/23 43/111/23 38/126/23 40/127/23
